<svg width="68" height="48" viewBox="0 0 68 48" fill="none" xmlns="http://www.w3.org/2000/svg">
<path d="M14 0.666672V47.3333H24V27.3333H44V47.3333H54V0.666672H44V20.6667H24V0.666672H14ZM4.00001 34C4.00001 34.8841 4.35119 35.7319 4.97632 36.357C5.60144 36.9821 6.44928 37.3333 7.33334 37.3333H10.6667V10.6667H7.33334C6.44928 10.6667 5.60144 11.0179 4.97632 11.643C4.35119 12.2681 4.00001 13.1159 4.00001 14V20.6667H0.666672V27.3333H4.00001V34ZM64 14C64 13.1159 63.6488 12.2681 63.0237 11.643C62.3986 11.0179 61.5507 10.6667 60.6667 10.6667H57.3333V37.3333H60.6667C61.5507 37.3333 62.3986 36.9821 63.0237 36.357C63.6488 35.7319 64 34.8841 64 34V27.3333H67.3333V20.6667H64V14Z" fill="#1E1E1E"/>
</svg>
