<svg width="124" height="32" viewBox="0 0 124 32" fill="none" xmlns="http://www.w3.org/2000/svg">
<g filter="url(#filter0_i_96_93)">
<path d="M68.3816 24.0766V15.5058H72.5658V31.3143H68.7614L62.6741 22.552V31.3143H58.6789V15.5058H62.1988L68.3816 24.0766Z" fill="black"/>
</g>
<g filter="url(#filter1_i_96_93)">
<path d="M123.929 20.2671H120.98C120.88 20.2671 119.747 18.9341 119.647 18.9341H113.845V21.7917H121.549C122.125 22.572 123.814 23.6276 123.937 24.5436C124.11 25.8347 123.826 27.5528 123.887 28.8958C123.844 29.0435 121.93 31.031 121.749 31.1348C120.546 31.8272 113.89 31.015 112.077 31.2765C110.617 29.9275 109.048 29.0335 109.742 26.7326C109.925 26.4692 112.182 26.4772 112.568 26.593C112.954 26.7087 113.797 27.8881 113.938 27.8881H119.93V25.222H112.226C111.631 24.4118 109.772 23.2125 109.648 22.2806C109.559 21.6021 109.567 18.549 109.744 17.9743L112.077 15.5477H121.511C121.666 15.5936 123.754 17.6311 123.83 17.7967C124.116 18.4293 123.83 19.5567 123.929 20.2691V20.2671Z" fill="black"/>
</g>
<g filter="url(#filter2_i_96_93)">
<path d="M106.429 20.2671H103.671C103.571 20.2671 102.438 18.9341 102.338 18.9341H96.3462V21.7917H104.241L106.389 24.0207C106.264 25.222 106.769 28.4168 106.248 29.3248C106.15 29.4944 104.339 31.2345 104.201 31.2744H94.7672C94.6121 31.2285 92.524 29.1911 92.4485 29.0255C92.1621 28.3929 92.4485 27.2654 92.349 26.553H95.1073C95.4593 26.553 96.5272 27.886 96.6286 27.886H102.432V25.22H94.7275L92.3888 22.7994C92.5061 21.6261 92.0169 18.5789 92.53 17.6849C92.6354 17.5033 94.6181 15.5876 94.7672 15.5437H104.011C104.166 15.5896 106.254 17.627 106.329 17.7927C106.616 18.4252 106.329 19.5527 106.429 20.2651V20.2671Z" fill="black"/>
</g>
<g filter="url(#filter3_i_96_93)">
<path d="M89.1155 15.5058V18.9341H79.7946V21.7917H87.785V25.22H79.7946V27.886H89.1155V31.3143H78.1778L75.7993 28.9337V15.5058H89.1155Z" fill="#F30F0F"/>
</g>
<g filter="url(#filter4_i_96_93)">
<path d="M32.9973 15.5058V18.9341H23.6744V21.7917H31.6649V25.22H23.6744V31.3143H19.6812V17.8865L22.0576 15.5058H32.9973Z" fill="black"/>
</g>
<g filter="url(#filter5_i_96_93)">
<path d="M75.0397 11.6964V0.0784302H83.6963C83.8097 0.0784302 85.2634 1.58106 85.3231 1.68682C85.5736 2.12584 85.6094 4.0176 85.4643 4.51448C85.3191 5.01137 84.4441 5.3107 84.3546 5.8874C84.3546 6.37231 85.327 6.79537 85.4643 7.26032C85.5697 7.61952 85.5756 9.48733 85.4981 9.88244C85.4404 10.1798 84.0086 11.6964 83.8853 11.6964H75.0397ZM82.4574 2.55488H78.0823V4.65018H82.4574V2.55488ZM82.4574 7.12662H78.0823V9.22192H82.4574V7.12662Z" fill="black"/>
</g>
<g filter="url(#filter6_i_96_93)">
<path d="M56.5868 15.5058V18.9341H51.8299V31.3143H47.8347V18.9341H43.0798V15.5058H56.5868Z" fill="black"/>
</g>
<g filter="url(#filter7_i_96_93)">
<path d="M110.993 11.6964H108.235L105.818 7.73725L103.575 7.69734V11.6964H100.53V0.0784302H109.187C109.3 0.0784302 110.754 1.58106 110.814 1.68682C111.279 2.501 110.875 4.80583 110.955 5.84749L109.302 7.6275C109.913 9.00242 111.325 10.0501 110.995 11.6944L110.993 11.6964ZM107.95 2.55488H103.575V5.2209H107.95V2.55488Z" fill="black"/>
</g>
<g filter="url(#filter8_i_96_93)">
<path d="M123.929 10.078C123.879 10.2556 122.394 11.6404 122.117 11.6923C121.087 11.8899 116.812 11.824 115.642 11.7083C114.634 11.6085 114.153 10.7484 113.504 10.038C113.725 8.40171 113.003 2.80626 113.646 1.68677C113.695 1.59897 114.984 0.307864 115.072 0.257976C116.12 -0.344673 120.463 0.33181 121.926 0.0823693C123.161 0.900534 124.299 1.83444 123.929 3.50669C123.281 3.42288 122.38 3.64638 121.779 3.46678C121.435 3.36501 120.904 2.55283 120.789 2.55283H116.603L116.318 2.83819V9.21788H120.884V7.12258H118.222V4.64613H123.929V10.074V10.078Z" fill="black"/>
</g>
<g filter="url(#filter9_i_96_93)">
<path d="M21.2979 7.12657L19.7189 5.46829C19.7925 4.47052 19.4007 2.2954 19.8601 1.49719C19.9496 1.34354 21.1886 0.162188 21.3357 0.118286H28.296C29.4455 1.10807 30.5074 1.79253 30.1435 3.50868C29.4455 3.41489 28.4472 3.66034 27.8029 3.46877C27.3673 3.33906 27.2023 2.67056 26.6176 2.56081C26.1224 2.46702 23.5053 2.46502 23.0062 2.55682C22.7894 2.59673 22.6204 2.62267 22.5568 2.87011L22.5309 4.65212H28.3338C28.4472 4.65212 29.9009 6.15475 29.9606 6.26051C30.2091 6.69354 30.2529 9.3396 30.1018 9.85046C29.9785 10.2635 28.4492 11.6444 27.9639 11.7083C27.1923 11.8121 21.8866 11.824 21.3337 11.6584C21.1687 11.6085 19.8482 10.3294 19.7766 10.1697C19.532 9.63095 19.7408 8.8527 19.6772 8.26801C20.2758 8.33985 21.0772 8.14229 21.636 8.30792C21.98 8.40969 22.511 9.22187 22.6264 9.22187H27.0969V7.12657H21.2939H21.2979Z" fill="black"/>
</g>
<g filter="url(#filter10_i_96_93)">
<path d="M89.6305 0.118335L96.2448 0.0844116L97.9571 1.607L98.0505 9.88443C97.9949 10.1758 96.7858 11.4828 96.5292 11.5986C96.1832 11.7562 90.3703 11.8061 89.7837 11.6924C89.4933 11.6365 87.9998 10.2396 87.8805 9.97822C87.7035 9.5871 87.6777 3.01384 87.793 2.27949C87.9223 1.46132 89.03 0.659122 89.6285 0.118335H89.6305ZM95.2048 9.22192V2.84223L94.9204 2.55687H91.1161L90.8317 2.84223V9.22192H95.2068H95.2048Z" fill="black"/>
</g>
<g filter="url(#filter11_i_96_93)">
<path d="M72.5658 0.0803833V2.55483H65.7168V4.65014H71.6152V7.12658H65.7168V9.22188H72.5658V11.6963H64.2909L62.6741 10.078V0.0803833H72.5658Z" fill="black"/>
</g>
<g filter="url(#filter12_i_96_93)">
<path d="M41.5565 15.5058V18.7425H40.2241V28.2652H41.5565V31.3124H34.8984V28.2652C35.3598 28.2532 35.9226 28.4089 36.2308 27.9798V18.7425H34.8984V15.5058H41.5565Z" fill="black"/>
</g>
<g filter="url(#filter13_i_96_93)">
<path d="M53.1623 0.0803833V4.65213L55.2544 4.55635L57.9212 0.178164L60.584 0.0803833C60.8545 2.34929 58.7346 3.94571 57.955 5.92328C58.7644 7.84497 60.8466 9.47931 60.5821 11.6983H57.7283L55.2166 7.16849L53.1623 7.12858V11.7003H50.1177V0.0823785H53.1623V0.0803833Z" fill="black"/>
</g>
<g filter="url(#filter14_i_96_93)">
<path d="M41.9383 0.0803833V9.22188H48.4055V11.6963H40.7014L39.0846 10.078V0.0803833H41.9383Z" fill="black"/>
</g>
<g filter="url(#filter15_i_96_93)">
<path d="M36.9925 0.0803833V2.36526H36.0399V9.41146H36.9925V11.6963H32.0447L32.0705 9.72276L32.9973 9.41146V2.36526H32.0447V0.0803833H36.9925Z" fill="black"/>
</g>
<path d="M14.1004 0H14.098C13.0489 0 12.1984 0.842796 12.1984 1.88244V29.1176C12.1984 30.1572 13.0489 31 14.098 31H14.1004C15.1495 31 16 30.1572 16 29.1176V1.88244C16 0.842796 15.1495 0 14.1004 0Z" fill="white"/>
<path d="M14.1004 0H14.098C13.0489 0 12.1984 0.842796 12.1984 1.88244V29.1176C12.1984 30.1572 13.0489 31 14.098 31H14.1004C15.1495 31 16 30.1572 16 29.1176V1.88244C16 0.842796 15.1495 0 14.1004 0Z" fill="white"/>
<path d="M8.83301 2H8.83063C7.78151 2 6.93103 2.8428 6.93103 3.88244V26.3985C6.93103 27.4381 7.78151 28.2809 8.83063 28.2809H8.83301C9.88213 28.2809 10.7326 27.4381 10.7326 26.3985V3.88244C10.7326 2.8428 9.88213 2 8.83301 2Z" fill="white"/>
<path d="M3.568 6H3.56561C2.51649 6 1.66602 6.8428 1.66602 7.88244V22.5404C1.66602 23.5801 2.51649 24.4229 3.56561 24.4229H3.568C4.61712 24.4229 5.46759 23.5801 5.46759 22.5404V7.88244C5.46759 6.8428 4.61712 6 3.568 6Z" fill="white"/>
<path d="M3.32966 13V16.7672H1.8996C0.850886 16.7672 0 15.924 0 14.8824C0 13.8408 0.850886 13 1.8996 13H3.32966Z" fill="white"/>
<defs>
<filter id="filter0_i_96_93" x="58.6789" y="15.5058" width="13.8869" height="15.8085" filterUnits="userSpaceOnUse" color-interpolation-filters="sRGB">
<feFlood flood-opacity="0" result="BackgroundImageFix"/>
<feBlend mode="normal" in="SourceGraphic" in2="BackgroundImageFix" result="shape"/>
<feColorMatrix in="SourceAlpha" type="matrix" values="0 0 0 0 0 0 0 0 0 0 0 0 0 0 0 0 0 0 127 0" result="hardAlpha"/>
<feOffset dx="-171" dy="4"/>
<feGaussianBlur stdDeviation="2"/>
<feComposite in2="hardAlpha" operator="arithmetic" k2="-1" k3="1"/>
<feColorMatrix type="matrix" values="0 0 0 0 1 0 0 0 0 1 0 0 0 0 1 0 0 0 1 0"/>
<feBlend mode="normal" in2="shape" result="effect1_innerShadow_96_93"/>
</filter>
<filter id="filter1_i_96_93" x="109.572" y="15.5477" width="14.4212" height="15.8741" filterUnits="userSpaceOnUse" color-interpolation-filters="sRGB">
<feFlood flood-opacity="0" result="BackgroundImageFix"/>
<feBlend mode="normal" in="SourceGraphic" in2="BackgroundImageFix" result="shape"/>
<feColorMatrix in="SourceAlpha" type="matrix" values="0 0 0 0 0 0 0 0 0 0 0 0 0 0 0 0 0 0 127 0" result="hardAlpha"/>
<feOffset dx="-171" dy="4"/>
<feGaussianBlur stdDeviation="2"/>
<feComposite in2="hardAlpha" operator="arithmetic" k2="-1" k3="1"/>
<feColorMatrix type="matrix" values="0 0 0 0 1 0 0 0 0 1 0 0 0 0 1 0 0 0 1 0"/>
<feBlend mode="normal" in2="shape" result="effect1_innerShadow_96_93"/>
</filter>
<filter id="filter2_i_96_93" x="92.2905" y="15.5437" width="14.1984" height="15.7307" filterUnits="userSpaceOnUse" color-interpolation-filters="sRGB">
<feFlood flood-opacity="0" result="BackgroundImageFix"/>
<feBlend mode="normal" in="SourceGraphic" in2="BackgroundImageFix" result="shape"/>
<feColorMatrix in="SourceAlpha" type="matrix" values="0 0 0 0 0 0 0 0 0 0 0 0 0 0 0 0 0 0 127 0" result="hardAlpha"/>
<feOffset dx="-171" dy="4"/>
<feGaussianBlur stdDeviation="2"/>
<feComposite in2="hardAlpha" operator="arithmetic" k2="-1" k3="1"/>
<feColorMatrix type="matrix" values="0 0 0 0 1 0 0 0 0 1 0 0 0 0 1 0 0 0 1 0"/>
<feBlend mode="normal" in2="shape" result="effect1_innerShadow_96_93"/>
</filter>
<filter id="filter3_i_96_93" x="75.7993" y="15.5058" width="13.3161" height="15.8085" filterUnits="userSpaceOnUse" color-interpolation-filters="sRGB">
<feFlood flood-opacity="0" result="BackgroundImageFix"/>
<feBlend mode="normal" in="SourceGraphic" in2="BackgroundImageFix" result="shape"/>
<feColorMatrix in="SourceAlpha" type="matrix" values="0 0 0 0 0 0 0 0 0 0 0 0 0 0 0 0 0 0 127 0" result="hardAlpha"/>
<feOffset dx="-171" dy="4"/>
<feGaussianBlur stdDeviation="2"/>
<feComposite in2="hardAlpha" operator="arithmetic" k2="-1" k3="1"/>
<feColorMatrix type="matrix" values="0 0 0 0 1 0 0 0 0 1 0 0 0 0 1 0 0 0 1 0"/>
<feBlend mode="normal" in2="shape" result="effect1_innerShadow_96_93"/>
</filter>
<filter id="filter4_i_96_93" x="19.6812" y="15.5058" width="13.3161" height="15.8085" filterUnits="userSpaceOnUse" color-interpolation-filters="sRGB">
<feFlood flood-opacity="0" result="BackgroundImageFix"/>
<feBlend mode="normal" in="SourceGraphic" in2="BackgroundImageFix" result="shape"/>
<feColorMatrix in="SourceAlpha" type="matrix" values="0 0 0 0 0 0 0 0 0 0 0 0 0 0 0 0 0 0 127 0" result="hardAlpha"/>
<feOffset dx="-171" dy="4"/>
<feGaussianBlur stdDeviation="2"/>
<feComposite in2="hardAlpha" operator="arithmetic" k2="-1" k3="1"/>
<feColorMatrix type="matrix" values="0 0 0 0 1 0 0 0 0 1 0 0 0 0 1 0 0 0 1 0"/>
<feBlend mode="normal" in2="shape" result="effect1_innerShadow_96_93"/>
</filter>
<filter id="filter5_i_96_93" x="75.0397" y="0.0784302" width="10.5109" height="11.618" filterUnits="userSpaceOnUse" color-interpolation-filters="sRGB">
<feFlood flood-opacity="0" result="BackgroundImageFix"/>
<feBlend mode="normal" in="SourceGraphic" in2="BackgroundImageFix" result="shape"/>
<feColorMatrix in="SourceAlpha" type="matrix" values="0 0 0 0 0 0 0 0 0 0 0 0 0 0 0 0 0 0 127 0" result="hardAlpha"/>
<feOffset dx="-171" dy="4"/>
<feGaussianBlur stdDeviation="2"/>
<feComposite in2="hardAlpha" operator="arithmetic" k2="-1" k3="1"/>
<feColorMatrix type="matrix" values="0 0 0 0 1 0 0 0 0 1 0 0 0 0 1 0 0 0 1 0"/>
<feBlend mode="normal" in2="shape" result="effect1_innerShadow_96_93"/>
</filter>
<filter id="filter6_i_96_93" x="43.0798" y="15.5058" width="13.507" height="15.8085" filterUnits="userSpaceOnUse" color-interpolation-filters="sRGB">
<feFlood flood-opacity="0" result="BackgroundImageFix"/>
<feBlend mode="normal" in="SourceGraphic" in2="BackgroundImageFix" result="shape"/>
<feColorMatrix in="SourceAlpha" type="matrix" values="0 0 0 0 0 0 0 0 0 0 0 0 0 0 0 0 0 0 127 0" result="hardAlpha"/>
<feOffset dx="-171" dy="4"/>
<feGaussianBlur stdDeviation="2"/>
<feComposite in2="hardAlpha" operator="arithmetic" k2="-1" k3="1"/>
<feColorMatrix type="matrix" values="0 0 0 0 1 0 0 0 0 1 0 0 0 0 1 0 0 0 1 0"/>
<feBlend mode="normal" in2="shape" result="effect1_innerShadow_96_93"/>
</filter>
<filter id="filter7_i_96_93" x="100.53" y="0.0784302" width="10.5137" height="11.618" filterUnits="userSpaceOnUse" color-interpolation-filters="sRGB">
<feFlood flood-opacity="0" result="BackgroundImageFix"/>
<feBlend mode="normal" in="SourceGraphic" in2="BackgroundImageFix" result="shape"/>
<feColorMatrix in="SourceAlpha" type="matrix" values="0 0 0 0 0 0 0 0 0 0 0 0 0 0 0 0 0 0 127 0" result="hardAlpha"/>
<feOffset dx="-171" dy="4"/>
<feGaussianBlur stdDeviation="2"/>
<feComposite in2="hardAlpha" operator="arithmetic" k2="-1" k3="1"/>
<feColorMatrix type="matrix" values="0 0 0 0 1 0 0 0 0 1 0 0 0 0 1 0 0 0 1 0"/>
<feBlend mode="normal" in2="shape" result="effect1_innerShadow_96_93"/>
</filter>
<filter id="filter8_i_96_93" x="113.372" y="0" width="10.6275" height="11.8185" filterUnits="userSpaceOnUse" color-interpolation-filters="sRGB">
<feFlood flood-opacity="0" result="BackgroundImageFix"/>
<feBlend mode="normal" in="SourceGraphic" in2="BackgroundImageFix" result="shape"/>
<feColorMatrix in="SourceAlpha" type="matrix" values="0 0 0 0 0 0 0 0 0 0 0 0 0 0 0 0 0 0 127 0" result="hardAlpha"/>
<feOffset dx="-171" dy="4"/>
<feGaussianBlur stdDeviation="2"/>
<feComposite in2="hardAlpha" operator="arithmetic" k2="-1" k3="1"/>
<feColorMatrix type="matrix" values="0 0 0 0 1 0 0 0 0 1 0 0 0 0 1 0 0 0 1 0"/>
<feBlend mode="normal" in2="shape" result="effect1_innerShadow_96_93"/>
</filter>
<filter id="filter9_i_96_93" x="19.6329" y="0.118286" width="10.5834" height="11.6666" filterUnits="userSpaceOnUse" color-interpolation-filters="sRGB">
<feFlood flood-opacity="0" result="BackgroundImageFix"/>
<feBlend mode="normal" in="SourceGraphic" in2="BackgroundImageFix" result="shape"/>
<feColorMatrix in="SourceAlpha" type="matrix" values="0 0 0 0 0 0 0 0 0 0 0 0 0 0 0 0 0 0 127 0" result="hardAlpha"/>
<feOffset dx="-171" dy="4"/>
<feGaussianBlur stdDeviation="2"/>
<feComposite in2="hardAlpha" operator="arithmetic" k2="-1" k3="1"/>
<feColorMatrix type="matrix" values="0 0 0 0 1 0 0 0 0 1 0 0 0 0 1 0 0 0 1 0"/>
<feBlend mode="normal" in2="shape" result="effect1_innerShadow_96_93"/>
</filter>
<filter id="filter10_i_96_93" x="87.723" y="0.0844116" width="10.3276" height="11.6699" filterUnits="userSpaceOnUse" color-interpolation-filters="sRGB">
<feFlood flood-opacity="0" result="BackgroundImageFix"/>
<feBlend mode="normal" in="SourceGraphic" in2="BackgroundImageFix" result="shape"/>
<feColorMatrix in="SourceAlpha" type="matrix" values="0 0 0 0 0 0 0 0 0 0 0 0 0 0 0 0 0 0 127 0" result="hardAlpha"/>
<feOffset dx="-171" dy="4"/>
<feGaussianBlur stdDeviation="2"/>
<feComposite in2="hardAlpha" operator="arithmetic" k2="-1" k3="1"/>
<feColorMatrix type="matrix" values="0 0 0 0 1 0 0 0 0 1 0 0 0 0 1 0 0 0 1 0"/>
<feBlend mode="normal" in2="shape" result="effect1_innerShadow_96_93"/>
</filter>
<filter id="filter11_i_96_93" x="62.6741" y="0.0803833" width="9.89163" height="11.6159" filterUnits="userSpaceOnUse" color-interpolation-filters="sRGB">
<feFlood flood-opacity="0" result="BackgroundImageFix"/>
<feBlend mode="normal" in="SourceGraphic" in2="BackgroundImageFix" result="shape"/>
<feColorMatrix in="SourceAlpha" type="matrix" values="0 0 0 0 0 0 0 0 0 0 0 0 0 0 0 0 0 0 127 0" result="hardAlpha"/>
<feOffset dx="-171" dy="4"/>
<feGaussianBlur stdDeviation="2"/>
<feComposite in2="hardAlpha" operator="arithmetic" k2="-1" k3="1"/>
<feColorMatrix type="matrix" values="0 0 0 0 1 0 0 0 0 1 0 0 0 0 1 0 0 0 1 0"/>
<feBlend mode="normal" in2="shape" result="effect1_innerShadow_96_93"/>
</filter>
<filter id="filter12_i_96_93" x="34.8984" y="15.5058" width="6.65807" height="15.8065" filterUnits="userSpaceOnUse" color-interpolation-filters="sRGB">
<feFlood flood-opacity="0" result="BackgroundImageFix"/>
<feBlend mode="normal" in="SourceGraphic" in2="BackgroundImageFix" result="shape"/>
<feColorMatrix in="SourceAlpha" type="matrix" values="0 0 0 0 0 0 0 0 0 0 0 0 0 0 0 0 0 0 127 0" result="hardAlpha"/>
<feOffset dx="-171" dy="4"/>
<feGaussianBlur stdDeviation="2"/>
<feComposite in2="hardAlpha" operator="arithmetic" k2="-1" k3="1"/>
<feColorMatrix type="matrix" values="0 0 0 0 1 0 0 0 0 1 0 0 0 0 1 0 0 0 1 0"/>
<feBlend mode="normal" in2="shape" result="effect1_innerShadow_96_93"/>
</filter>
<filter id="filter13_i_96_93" x="50.1177" y="0.0803833" width="10.49" height="11.6199" filterUnits="userSpaceOnUse" color-interpolation-filters="sRGB">
<feFlood flood-opacity="0" result="BackgroundImageFix"/>
<feBlend mode="normal" in="SourceGraphic" in2="BackgroundImageFix" result="shape"/>
<feColorMatrix in="SourceAlpha" type="matrix" values="0 0 0 0 0 0 0 0 0 0 0 0 0 0 0 0 0 0 127 0" result="hardAlpha"/>
<feOffset dx="-171" dy="4"/>
<feGaussianBlur stdDeviation="2"/>
<feComposite in2="hardAlpha" operator="arithmetic" k2="-1" k3="1"/>
<feColorMatrix type="matrix" values="0 0 0 0 1 0 0 0 0 1 0 0 0 0 1 0 0 0 1 0"/>
<feBlend mode="normal" in2="shape" result="effect1_innerShadow_96_93"/>
</filter>
<filter id="filter14_i_96_93" x="39.0846" y="0.0803833" width="9.32088" height="11.6159" filterUnits="userSpaceOnUse" color-interpolation-filters="sRGB">
<feFlood flood-opacity="0" result="BackgroundImageFix"/>
<feBlend mode="normal" in="SourceGraphic" in2="BackgroundImageFix" result="shape"/>
<feColorMatrix in="SourceAlpha" type="matrix" values="0 0 0 0 0 0 0 0 0 0 0 0 0 0 0 0 0 0 127 0" result="hardAlpha"/>
<feOffset dx="-171" dy="4"/>
<feGaussianBlur stdDeviation="2"/>
<feComposite in2="hardAlpha" operator="arithmetic" k2="-1" k3="1"/>
<feColorMatrix type="matrix" values="0 0 0 0 1 0 0 0 0 1 0 0 0 0 1 0 0 0 1 0"/>
<feBlend mode="normal" in2="shape" result="effect1_innerShadow_96_93"/>
</filter>
<filter id="filter15_i_96_93" x="32.0447" y="0.0803833" width="4.9478" height="11.6159" filterUnits="userSpaceOnUse" color-interpolation-filters="sRGB">
<feFlood flood-opacity="0" result="BackgroundImageFix"/>
<feBlend mode="normal" in="SourceGraphic" in2="BackgroundImageFix" result="shape"/>
<feColorMatrix in="SourceAlpha" type="matrix" values="0 0 0 0 0 0 0 0 0 0 0 0 0 0 0 0 0 0 127 0" result="hardAlpha"/>
<feOffset dx="-171" dy="4"/>
<feGaussianBlur stdDeviation="2"/>
<feComposite in2="hardAlpha" operator="arithmetic" k2="-1" k3="1"/>
<feColorMatrix type="matrix" values="0 0 0 0 1 0 0 0 0 1 0 0 0 0 1 0 0 0 1 0"/>
<feBlend mode="normal" in2="shape" result="effect1_innerShadow_96_93"/>
</filter>
</defs>
</svg>
